PathFileType	4	(X/Y/Z)	\\Move.snu.ac.kr\motion\Animal\091204_091205_Bird\091205_bird\Project 2\Capture day 2\Session 1\pigeon_013.trc
DataRate	CameraRate	NumFrames	NumMarkers	Units	OrigDataRate	OrigDataStartFrame	OrigNumFrames
240.0	240.0	8	14	mm	240.0	39	3189
Frame#	Time	14MarkersBird:Head			14MarkersBird:C_back			14MarkersBird:Spine			14MarkersBird:L-shoulder			14MarkersBird:L-elbow			14MarkersBird:L-wrist			14MarkersBird:L-hand			14MarkersBird:R-shoulder			14MarkersBird:R-elbow			14MarkersBird:R-Wrist			14MarkersBird:R-hand			14MarkersBird:C_Tail			14MarkersBird:L-Tale			14MarkersBird:R-Tale			
		X1	Y1	Z1	X2	Y2	Z2	X3	Y3	Z3	X4	Y4	Z4	X5	Y5	Z5	X6	Y6	Z6	X7	Y7	Z7	X8	Y8	Z8	X9	Y9	Z9	X10	Y10	Z10	X11	Y11	Z11	X12	Y12	Z12	X13	Y13	Z13	X14	Y14	Z14	

1607	6.692	216.47884	1675.30322	1453.55969	219.65079	1674.96289	1512.16541	225.11511	1665.22620	1567.46484	193.81888	1670.06140	1487.66479	193.93253	1688.91174	1527.31311	170.53203	1706.72424	1494.98401	147.43335	1692.51660	1500.21802	237.79337	1669.43872	1483.04333	247.33885	1688.81116	1517.29773	266.44250	1700.64014	1480.58521	296.37299	1682.09424	1475.85510	220.61955	1581.28601	1662.11462	140.80487	1613.10046	1614.59143	311.03247	1591.84924	1602.24231	
1608	6.696	213.79912	1676.45776	1446.72473	216.97197	1676.02625	1504.16321	222.22769	1665.85486	1560.41882	191.22664	1670.90820	1480.45996	196.04410	1691.11206	1519.31689	172.64041	1713.93103	1490.59192	148.93349	1706.07959	1503.70715	233.75192	1671.09021	1476.42627	238.23988	1692.62158	1510.81860	260.62259	1708.86841	1477.78345	295.06628	1699.76721	1482.06299	216.51140	1580.44299	1653.80396	136.36208	1615.48401	1605.19629	309.82068	1594.10718	1593.83850	
1609	6.700	211.20757	1677.76270	1439.87964	214.28352	1677.12280	1496.22693	219.35652	1666.24805	1553.45056	188.80066	1671.66333	1473.44788	196.29077	1692.56653	1510.66528	175.13280	1720.12915	1485.40991	154.00095	1719.73535	1504.48169	230.36938	1672.25867	1469.72607	229.85234	1694.97754	1503.28076	253.45534	1716.07703	1474.29297	288.03973	1717.51892	1487.17273	212.50925	1579.42029	1645.55981	131.91629	1618.01392	1595.85498	309.01791	1596.67554	1585.28821	
1610	6.704	208.67686	1679.16882	1433.01880	211.58281	1678.10999	1488.94788	216.47935	1666.49561	1546.54395	186.53589	1672.32581	1466.63916	194.74594	1693.91956	1501.64221	177.24225	1725.41895	1479.48511	161.49971	1732.31726	1502.12549	227.22073	1673.24756	1463.05884	222.63332	1696.34644	1494.77893	245.68839	1722.29700	1469.85303	276.25903	1733.77710	1489.87939	208.68304	1578.48242	1637.65125	127.60699	1620.68103	1586.84106	308.37738	1599.37341	1576.81482	
1611	6.708	206.14249	1680.57983	1426.15820	208.82283	1678.95410	1482.62903	213.49626	1666.62195	1539.70935	184.31822	1672.97290	1459.93079	191.86067	1695.42053	1492.65930	178.23984	1729.75110	1472.92053	169.76906	1742.67261	1496.78235	224.26726	1674.05786	1456.46216	216.67117	1697.30762	1485.45569	238.28310	1727.40674	1464.27368	261.89728	1747.31750	1489.28699	205.06317	1577.90625	1630.32910	123.54836	1623.33496	1578.32227	307.65042	1602.04529	1568.72363	
1612	6.713	203.55945	1681.88879	1419.32996	205.94092	1679.64697	1476.95361	210.52879	1666.60352	1532.87048	181.94792	1673.68066	1453.21875	188.50337	1697.34424	1484.21289	177.40521	1733.00977	1465.95886	176.56619	1750.19226	1489.02014	221.59711	1674.74194	1449.88721	211.84904	1698.41858	1475.50195	232.46144	1731.20593	1457.56921	248.04047	1757.52844	1484.98206	201.68803	1577.88745	1623.72998	119.83422	1625.74829	1570.38232	306.62811	1604.57605	1561.28735	
1613	6.717	200.94760	1683.04431	1412.54504	202.93919	1680.12268	1471.31335	207.65706	1666.40820	1526.03271	179.27397	1674.44775	1446.47546	184.94499	1699.39868	1476.43298	174.10666	1735.06067	1458.97656	179.49059	1755.05017	1479.70166	219.26300	1675.38293	1443.24951	208.18776	1699.92993	1465.20923	229.44193	1733.50110	1450.05823	238.04601	1764.48364	1477.23792	198.63676	1578.50476	1617.80981	116.52673	1627.77747	1563.05225	305.20105	1606.93726	1554.62366	
1614	6.721	198.35339	1684.06348	1405.78687	199.90088	1680.35559	1465.27478	204.88379	1666.10132	1519.20251	176.32921	1675.19434	1439.76306	180.60240	1700.72595	1468.97961	168.05592	1735.73804	1452.33630	176.76039	1757.91064	1469.81763	217.23068	1675.95593	1436.49158	206.03683	1701.62720	1455.38916	229.89407	1734.09766	1442.25061	234.49840	1768.51855	1467.07544	196.00594	1579.74866	1612.35779	113.64239	1629.44788	1556.29138	303.38937	1609.19702	1548.62305	
